<svg width="158" height="15" viewBox="0 0 158 15" fill="none" xmlns="http://www.w3.org/2000/svg">
<path d="M6.09413 0.745921V1.78192H1.85213V5.07192H5.29613V6.10792H1.85213V10.5039H0.578125V0.745921H6.09413Z" fill="#0156FF"/>
<path d="M10.9788 10.6299C10.2601 10.6299 9.60681 10.4666 9.01881 10.1399C8.44015 9.81325 7.98281 9.35125 7.64681 8.75392C7.32015 8.14725 7.15681 7.44725 7.15681 6.65392C7.15681 5.86992 7.32481 5.17925 7.66081 4.58192C8.00615 3.97525 8.47281 3.51325 9.06081 3.19592C9.64881 2.86925 10.3068 2.70592 11.0348 2.70592C11.7628 2.70592 12.4208 2.86925 13.0088 3.19592C13.5968 3.51325 14.0588 3.97059 14.3948 4.56792C14.7401 5.16525 14.9128 5.86059 14.9128 6.65392C14.9128 7.44725 14.7355 8.14725 14.3808 8.75392C14.0355 9.35125 13.5641 9.81325 12.9668 10.1399C12.3695 10.4666 11.7068 10.6299 10.9788 10.6299ZM10.9788 9.50992C11.4361 9.50992 11.8655 9.40259 12.2668 9.18792C12.6681 8.97325 12.9901 8.65126 13.2328 8.22192C13.4848 7.79259 13.6108 7.26992 13.6108 6.65392C13.6108 6.03792 13.4895 5.51525 13.2468 5.08592C13.0041 4.65659 12.6868 4.33925 12.2948 4.13392C11.9028 3.91925 11.4781 3.81192 11.0208 3.81192C10.5541 3.81192 10.1248 3.91925 9.73281 4.13392C9.35015 4.33925 9.04215 4.65659 8.80881 5.08592C8.57548 5.51525 8.45881 6.03792 8.45881 6.65392C8.45881 7.27925 8.57081 7.80659 8.79481 8.23592C9.02815 8.66526 9.33615 8.98725 9.71881 9.20192C10.1015 9.40725 10.5215 9.50992 10.9788 9.50992Z" fill="#0156FF"/>
<path d="M17.8619 4.07792C18.0859 3.63925 18.4032 3.29859 18.8139 3.05592C19.2339 2.81325 19.7426 2.69192 20.3399 2.69192V4.00792H20.0039C18.5759 4.00792 17.8619 4.78259 17.8619 6.33192V10.5039H16.5879V2.83192H17.8619V4.07792Z" fill="#0156FF"/>
<path d="M24.9745 2.70592C25.6372 2.70592 26.2159 2.85059 26.7105 3.13992C27.2145 3.42925 27.5879 3.79325 27.8305 4.23192V2.83192H29.1185V10.6719C29.1185 11.3719 28.9692 11.9926 28.6705 12.5339C28.3719 13.0846 27.9425 13.5139 27.3825 13.8219C26.8319 14.1299 26.1879 14.2839 25.4505 14.2839C24.4425 14.2839 23.6025 14.0459 22.9305 13.5699C22.2585 13.0939 21.8619 12.4453 21.7405 11.6239H23.0005C23.1405 12.0906 23.4299 12.4639 23.8685 12.7439C24.3072 13.0333 24.8345 13.1779 25.4505 13.1779C26.1505 13.1779 26.7199 12.9586 27.1585 12.5199C27.6065 12.0813 27.8305 11.4653 27.8305 10.6719V9.06192C27.5785 9.50992 27.2052 9.88325 26.7105 10.1819C26.2159 10.4806 25.6372 10.6299 24.9745 10.6299C24.2932 10.6299 23.6725 10.4619 23.1125 10.1259C22.5619 9.78992 22.1279 9.31859 21.8105 8.71192C21.4932 8.10526 21.3345 7.41459 21.3345 6.63992C21.3345 5.85592 21.4932 5.16992 21.8105 4.58192C22.1279 3.98459 22.5619 3.52259 23.1125 3.19592C23.6725 2.86925 24.2932 2.70592 24.9745 2.70592ZM27.8305 6.65392C27.8305 6.07525 27.7139 5.57125 27.4805 5.14192C27.2472 4.71259 26.9299 4.38592 26.5285 4.16192C26.1365 3.92859 25.7025 3.81192 25.2265 3.81192C24.7505 3.81192 24.3165 3.92392 23.9245 4.14792C23.5325 4.37192 23.2199 4.69859 22.9865 5.12792C22.7532 5.55725 22.6365 6.06125 22.6365 6.63992C22.6365 7.22792 22.7532 7.74125 22.9865 8.17992C23.2199 8.60925 23.5325 8.94059 23.9245 9.17392C24.3165 9.39792 24.7505 9.50992 25.2265 9.50992C25.7025 9.50992 26.1365 9.39792 26.5285 9.17392C26.9299 8.94059 27.2472 8.60925 27.4805 8.17992C27.7139 7.74125 27.8305 7.23259 27.8305 6.65392Z" fill="#0156FF"/>
<path d="M34.6175 10.6299C33.8988 10.6299 33.2455 10.4666 32.6575 10.1399C32.0788 9.81325 31.6215 9.35125 31.2855 8.75392C30.9588 8.14725 30.7955 7.44725 30.7955 6.65392C30.7955 5.86992 30.9635 5.17925 31.2995 4.58192C31.6448 3.97525 32.1115 3.51325 32.6995 3.19592C33.2875 2.86925 33.9455 2.70592 34.6735 2.70592C35.4015 2.70592 36.0595 2.86925 36.6475 3.19592C37.2355 3.51325 37.6975 3.97059 38.0335 4.56792C38.3788 5.16525 38.5515 5.86059 38.5515 6.65392C38.5515 7.44725 38.3742 8.14725 38.0195 8.75392C37.6742 9.35125 37.2028 9.81325 36.6055 10.1399C36.0082 10.4666 35.3455 10.6299 34.6175 10.6299ZM34.6175 9.50992C35.0748 9.50992 35.5042 9.40259 35.9055 9.18792C36.3068 8.97325 36.6288 8.65126 36.8715 8.22192C37.1235 7.79259 37.2495 7.26992 37.2495 6.65392C37.2495 6.03792 37.1282 5.51525 36.8855 5.08592C36.6428 4.65659 36.3255 4.33925 35.9335 4.13392C35.5415 3.91925 35.1168 3.81192 34.6595 3.81192C34.1928 3.81192 33.7635 3.91925 33.3715 4.13392C32.9888 4.33925 32.6808 4.65659 32.4475 5.08592C32.2142 5.51525 32.0975 6.03792 32.0975 6.65392C32.0975 7.27925 32.2095 7.80659 32.4335 8.23592C32.6668 8.66526 32.9748 8.98725 33.3575 9.20192C33.7402 9.40725 34.1602 9.50992 34.6175 9.50992Z" fill="#0156FF"/>
<path d="M41.7806 3.88192V8.40392C41.7806 8.77725 41.8599 9.04325 42.0186 9.20192C42.1772 9.35125 42.4526 9.42592 42.8446 9.42592H43.7826V10.5039H42.6346C41.9252 10.5039 41.3932 10.3406 41.0386 10.0139C40.6839 9.68726 40.5066 9.15059 40.5066 8.40392V3.88192H39.5126V2.83192H40.5066V0.89992H41.7806V2.83192H43.7826V3.88192H41.7806Z" fill="#0156FF"/>
<path d="M55.8906 0.745921L52.7126 6.82192V10.5039H51.4386V6.82192L48.2466 0.745921H49.6606L52.0686 5.68792L54.4766 0.745921H55.8906Z" fill="#0156FF"/>
<path d="M60.5804 10.6299C59.8617 10.6299 59.2084 10.4666 58.6204 10.1399C58.0417 9.81325 57.5844 9.35125 57.2484 8.75392C56.9217 8.14725 56.7584 7.44725 56.7584 6.65392C56.7584 5.86992 56.9264 5.17925 57.2624 4.58192C57.6077 3.97525 58.0744 3.51325 58.6624 3.19592C59.2504 2.86925 59.9084 2.70592 60.6364 2.70592C61.3644 2.70592 62.0224 2.86925 62.6104 3.19592C63.1984 3.51325 63.6604 3.97059 63.9964 4.56792C64.3417 5.16525 64.5144 5.86059 64.5144 6.65392C64.5144 7.44725 64.337 8.14725 63.9824 8.75392C63.637 9.35125 63.1657 9.81325 62.5684 10.1399C61.971 10.4666 61.3084 10.6299 60.5804 10.6299ZM60.5804 9.50992C61.0377 9.50992 61.467 9.40259 61.8684 9.18792C62.2697 8.97325 62.5917 8.65126 62.8344 8.22192C63.0864 7.79259 63.2124 7.26992 63.2124 6.65392C63.2124 6.03792 63.091 5.51525 62.8484 5.08592C62.6057 4.65659 62.2884 4.33925 61.8964 4.13392C61.5044 3.91925 61.0797 3.81192 60.6224 3.81192C60.1557 3.81192 59.7264 3.91925 59.3344 4.13392C58.9517 4.33925 58.6437 4.65659 58.4104 5.08592C58.177 5.51525 58.0604 6.03792 58.0604 6.65392C58.0604 7.27925 58.1724 7.80659 58.3964 8.23592C58.6297 8.66526 58.9377 8.98725 59.3204 9.20192C59.703 9.40725 60.123 9.50992 60.5804 9.50992Z" fill="#0156FF"/>
<path d="M72.9935 2.83192V10.5039H71.7195V9.36992C71.4768 9.76192 71.1361 10.0699 70.6974 10.2939C70.2681 10.5086 69.7921 10.6159 69.2694 10.6159C68.6721 10.6159 68.1354 10.4946 67.6594 10.2519C67.1834 9.99992 66.8055 9.62659 66.5255 9.13192C66.2548 8.63726 66.1195 8.03525 66.1195 7.32592V2.83192H67.3794V7.15792C67.3794 7.91392 67.5708 8.49725 67.9535 8.90792C68.3361 9.30925 68.8588 9.50992 69.5215 9.50992C70.2028 9.50992 70.7394 9.29992 71.1314 8.87992C71.5234 8.45992 71.7195 7.84859 71.7195 7.04592V2.83192H72.9935Z" fill="#0156FF"/>
<path d="M76.4185 4.07792C76.6425 3.63925 76.9599 3.29859 77.3705 3.05592C77.7905 2.81325 78.2992 2.69192 78.8965 2.69192V4.00792H78.5605C77.1325 4.00792 76.4185 4.78259 76.4185 6.33192V10.5039H75.1445V2.83192H76.4185V4.07792Z" fill="#0156FF"/>
<path d="M90.6236 3.60192C90.6236 4.41392 90.3436 5.09059 89.7836 5.63192C89.2329 6.16392 88.3883 6.42992 87.2496 6.42992H85.3736V10.5039H84.0996V0.745921H87.2496C88.3509 0.745921 89.1863 1.01192 89.7556 1.54392C90.3343 2.07592 90.6236 2.76192 90.6236 3.60192ZM87.2496 5.37992C87.9589 5.37992 88.4816 5.22592 88.8176 4.91792C89.1536 4.60992 89.3216 4.17125 89.3216 3.60192C89.3216 2.39792 88.6309 1.79592 87.2496 1.79592H85.3736V5.37992H87.2496Z" fill="#0156FF"/>
<path d="M91.731 6.63992C91.731 5.85592 91.8897 5.16992 92.207 4.58192C92.5244 3.98459 92.9584 3.52259 93.509 3.19592C94.069 2.86925 94.6897 2.70592 95.371 2.70592C96.043 2.70592 96.6264 2.85059 97.121 3.13992C97.6157 3.42925 97.9844 3.79325 98.227 4.23192V2.83192H99.515V10.5039H98.227V9.07592C97.975 9.52392 97.597 9.89725 97.093 10.1959C96.5984 10.4853 96.0197 10.6299 95.357 10.6299C94.6757 10.6299 94.0597 10.4619 93.509 10.1259C92.9584 9.78992 92.5244 9.31859 92.207 8.71192C91.8897 8.10526 91.731 7.41459 91.731 6.63992ZM98.227 6.65392C98.227 6.07525 98.1104 5.57125 97.877 5.14192C97.6437 4.71259 97.3264 4.38592 96.925 4.16192C96.533 3.92859 96.099 3.81192 95.623 3.81192C95.147 3.81192 94.713 3.92392 94.321 4.14792C93.929 4.37192 93.6164 4.69859 93.383 5.12792C93.1497 5.55725 93.033 6.06125 93.033 6.63992C93.033 7.22792 93.1497 7.74125 93.383 8.17992C93.6164 8.60925 93.929 8.94059 94.321 9.17392C94.713 9.39792 95.147 9.50992 95.623 9.50992C96.099 9.50992 96.533 9.39792 96.925 9.17392C97.3264 8.94059 97.6437 8.60925 97.877 8.17992C98.1104 7.74125 98.227 7.23259 98.227 6.65392Z" fill="#0156FF"/>
<path d="M104.384 10.6299C103.796 10.6299 103.269 10.5319 102.802 10.3359C102.335 10.1306 101.967 9.85059 101.696 9.49592C101.425 9.13192 101.276 8.71659 101.248 8.24992H102.564C102.601 8.63259 102.779 8.94525 103.096 9.18792C103.423 9.43059 103.847 9.55192 104.37 9.55192C104.855 9.55192 105.238 9.44459 105.518 9.22992C105.798 9.01525 105.938 8.74459 105.938 8.41792C105.938 8.08192 105.789 7.83459 105.49 7.67592C105.191 7.50792 104.729 7.34459 104.104 7.18592C103.535 7.03659 103.068 6.88725 102.704 6.73792C102.349 6.57925 102.041 6.35059 101.78 6.05192C101.528 5.74392 101.402 5.34259 101.402 4.84792C101.402 4.45592 101.519 4.09659 101.752 3.76992C101.985 3.44325 102.317 3.18659 102.746 2.99992C103.175 2.80392 103.665 2.70592 104.216 2.70592C105.065 2.70592 105.751 2.92059 106.274 3.34992C106.797 3.77925 107.077 4.36725 107.114 5.11392H105.84C105.812 4.71259 105.649 4.39059 105.35 4.14792C105.061 3.90525 104.669 3.78392 104.174 3.78392C103.717 3.78392 103.353 3.88192 103.082 4.07792C102.811 4.27392 102.676 4.53059 102.676 4.84792C102.676 5.09992 102.755 5.30992 102.914 5.47792C103.082 5.63659 103.287 5.76725 103.53 5.86992C103.782 5.96325 104.127 6.07059 104.566 6.19192C105.117 6.34125 105.565 6.49059 105.91 6.63992C106.255 6.77992 106.549 6.99459 106.792 7.28392C107.044 7.57325 107.175 7.95125 107.184 8.41792C107.184 8.83792 107.067 9.21592 106.834 9.55192C106.601 9.88792 106.269 10.1539 105.84 10.3499C105.42 10.5366 104.935 10.6299 104.384 10.6299Z" fill="#0156FF"/>
<path d="M111.698 10.6299C111.11 10.6299 110.583 10.5319 110.116 10.3359C109.65 10.1306 109.281 9.85059 109.01 9.49592C108.74 9.13192 108.59 8.71659 108.562 8.24992H109.878C109.916 8.63259 110.093 8.94525 110.41 9.18792C110.737 9.43059 111.162 9.55192 111.684 9.55192C112.17 9.55192 112.552 9.44459 112.832 9.22992C113.112 9.01525 113.252 8.74459 113.252 8.41792C113.252 8.08192 113.103 7.83459 112.804 7.67592C112.506 7.50792 112.044 7.34459 111.418 7.18592C110.849 7.03659 110.382 6.88725 110.018 6.73792C109.664 6.57925 109.356 6.35059 109.094 6.05192C108.842 5.74392 108.716 5.34259 108.716 4.84792C108.716 4.45592 108.833 4.09659 109.066 3.76992C109.3 3.44325 109.631 3.18659 110.06 2.99992C110.49 2.80392 110.98 2.70592 111.53 2.70592C112.38 2.70592 113.066 2.92059 113.588 3.34992C114.111 3.77925 114.391 4.36725 114.428 5.11392H113.154C113.126 4.71259 112.963 4.39059 112.664 4.14792C112.375 3.90525 111.983 3.78392 111.488 3.78392C111.031 3.78392 110.667 3.88192 110.396 4.07792C110.126 4.27392 109.99 4.53059 109.99 4.84792C109.99 5.09992 110.07 5.30992 110.228 5.47792C110.396 5.63659 110.602 5.76725 110.844 5.86992C111.096 5.96325 111.442 6.07059 111.88 6.19192C112.431 6.34125 112.879 6.49059 113.224 6.63992C113.57 6.77992 113.864 6.99459 114.106 7.28392C114.358 7.57325 114.489 7.95125 114.498 8.41792C114.498 8.83792 114.382 9.21592 114.148 9.55192C113.915 9.88792 113.584 10.1539 113.154 10.3499C112.734 10.5366 112.249 10.6299 111.698 10.6299Z" fill="#0156FF"/>
<path d="M126.517 2.83192L124.123 10.5039H122.807L120.959 4.41392L119.111 10.5039H117.795L115.387 2.83192H116.689L118.453 9.27192L120.357 2.83192H121.659L123.521 9.28592L125.257 2.83192H126.517Z" fill="#0156FF"/>
<path d="M131.127 10.6299C130.409 10.6299 129.755 10.4666 129.167 10.1399C128.589 9.81325 128.131 9.35125 127.795 8.75392C127.469 8.14725 127.305 7.44725 127.305 6.65392C127.305 5.86992 127.473 5.17925 127.809 4.58192C128.155 3.97525 128.621 3.51325 129.209 3.19592C129.797 2.86925 130.455 2.70592 131.183 2.70592C131.911 2.70592 132.569 2.86925 133.157 3.19592C133.745 3.51325 134.207 3.97059 134.543 4.56792C134.889 5.16525 135.061 5.86059 135.061 6.65392C135.061 7.44725 134.884 8.14725 134.529 8.75392C134.184 9.35125 133.713 9.81325 133.115 10.1399C132.518 10.4666 131.855 10.6299 131.127 10.6299ZM131.127 9.50992C131.585 9.50992 132.014 9.40259 132.415 9.18792C132.817 8.97325 133.139 8.65126 133.381 8.22192C133.633 7.79259 133.759 7.26992 133.759 6.65392C133.759 6.03792 133.638 5.51525 133.395 5.08592C133.153 4.65659 132.835 4.33925 132.443 4.13392C132.051 3.91925 131.627 3.81192 131.169 3.81192C130.703 3.81192 130.273 3.91925 129.881 4.13392C129.499 4.33925 129.191 4.65659 128.957 5.08592C128.724 5.51525 128.607 6.03792 128.607 6.65392C128.607 7.27925 128.719 7.80659 128.943 8.23592C129.177 8.66526 129.485 8.98725 129.867 9.20192C130.25 9.40725 130.67 9.50992 131.127 9.50992Z" fill="#0156FF"/>
<path d="M138.01 4.07792C138.234 3.63925 138.552 3.29859 138.962 3.05592C139.382 2.81325 139.891 2.69192 140.488 2.69192V4.00792H140.152C138.724 4.00792 138.01 4.78259 138.01 6.33192V10.5039H136.736V2.83192H138.01V4.07792Z" fill="#0156FF"/>
<path d="M141.483 6.63992C141.483 5.85592 141.642 5.16992 141.959 4.58192C142.276 3.98459 142.71 3.52259 143.261 3.19592C143.821 2.86925 144.446 2.70592 145.137 2.70592C145.734 2.70592 146.29 2.84592 146.803 3.12592C147.316 3.39659 147.708 3.75592 147.979 4.20392V0.143921H149.267V10.5039H147.979V9.06192C147.727 9.51925 147.354 9.89725 146.859 10.1959C146.364 10.4853 145.786 10.6299 145.123 10.6299C144.442 10.6299 143.821 10.4619 143.261 10.1259C142.71 9.78992 142.276 9.31859 141.959 8.71192C141.642 8.10526 141.483 7.41459 141.483 6.63992ZM147.979 6.65392C147.979 6.07525 147.862 5.57125 147.629 5.14192C147.396 4.71259 147.078 4.38592 146.677 4.16192C146.285 3.92859 145.851 3.81192 145.375 3.81192C144.899 3.81192 144.465 3.92392 144.073 4.14792C143.681 4.37192 143.368 4.69859 143.135 5.12792C142.902 5.55725 142.785 6.06125 142.785 6.63992C142.785 7.22792 142.902 7.74125 143.135 8.17992C143.368 8.60925 143.681 8.94059 144.073 9.17392C144.465 9.39792 144.899 9.50992 145.375 9.50992C145.851 9.50992 146.285 9.39792 146.677 9.17392C147.078 8.94059 147.396 8.60925 147.629 8.17992C147.862 7.74125 147.979 7.23259 147.979 6.65392Z" fill="#0156FF"/>
<path d="M153.912 0.619921C154.836 0.619921 155.583 0.881254 156.152 1.40392C156.721 1.92659 157.006 2.62659 157.006 3.50392C157.006 4.48392 156.703 5.21192 156.096 5.68792C155.489 6.15459 154.668 6.38792 153.632 6.38792L153.59 7.71792H152.484L152.428 5.50592H152.834C153.758 5.50592 154.481 5.36592 155.004 5.08592C155.527 4.80592 155.788 4.27859 155.788 3.50392C155.788 2.94392 155.62 2.50059 155.284 2.17392C154.948 1.84725 154.495 1.68392 153.926 1.68392C153.347 1.68392 152.89 1.84259 152.554 2.15992C152.227 2.46792 152.064 2.89259 152.064 3.43392H150.86C150.86 2.87392 150.986 2.38392 151.238 1.96392C151.49 1.53459 151.845 1.20325 152.302 0.96992C152.769 0.736587 153.305 0.619921 153.912 0.619921ZM153.03 10.5879C152.787 10.5879 152.582 10.5039 152.414 10.3359C152.246 10.1679 152.162 9.96259 152.162 9.71992C152.162 9.47725 152.246 9.27192 152.414 9.10392C152.582 8.93592 152.787 8.85192 153.03 8.85192C153.263 8.85192 153.459 8.93592 153.618 9.10392C153.786 9.27192 153.87 9.47725 153.87 9.71992C153.87 9.96259 153.786 10.1679 153.618 10.3359C153.459 10.5039 153.263 10.5879 153.03 10.5879Z" fill="#0156FF"/>
</svg>
