<svg width="47" height="16" viewBox="0 0 47 16" fill="none" xmlns="http://www.w3.org/2000/svg">
<path d="M4.51003 11.6019C3.8287 11.6019 3.2127 11.4852 2.66203 11.2519C2.1207 11.0186 1.69136 10.6826 1.37403 10.2439C1.0567 9.80523 0.893367 9.28723 0.884033 8.68989H2.98403C3.01203 9.09123 3.15203 9.40856 3.40403 9.64189C3.66537 9.87523 4.02003 9.99189 4.46803 9.99189C4.92537 9.99189 5.2847 9.88456 5.54603 9.66989C5.80737 9.44589 5.93803 9.15656 5.93803 8.80189C5.93803 8.51256 5.84936 8.27456 5.67203 8.08789C5.4947 7.90123 5.2707 7.75656 5.00003 7.65389C4.7387 7.54189 4.3747 7.42056 3.90803 7.28989C3.27336 7.10323 2.75537 6.92123 2.35403 6.74389C1.96203 6.55723 1.62136 6.28189 1.33203 5.91789C1.05203 5.54456 0.912033 5.04989 0.912033 4.43389C0.912033 3.85523 1.0567 3.35123 1.34603 2.92189C1.63536 2.49256 2.04137 2.16589 2.56403 1.94189C3.0867 1.70856 3.68403 1.59189 4.35603 1.59189C5.36403 1.59189 6.1807 1.83923 6.80603 2.33389C7.4407 2.81923 7.7907 3.50056 7.85603 4.37789H5.70003C5.68136 4.04189 5.5367 3.76656 5.26603 3.55189C5.0047 3.32789 4.6547 3.21589 4.21603 3.21589C3.83337 3.21589 3.52537 3.31389 3.29203 3.50989C3.06803 3.70589 2.95603 3.99056 2.95603 4.36389C2.95603 4.62523 3.04003 4.84456 3.20803 5.02189C3.38537 5.18989 3.60003 5.32989 3.85203 5.44189C4.11337 5.54456 4.47737 5.66589 4.94403 5.80589C5.5787 5.99256 6.0967 6.17923 6.49803 6.36589C6.89937 6.55256 7.2447 6.83256 7.53403 7.20589C7.82336 7.57923 7.96803 8.06923 7.96803 8.67589C7.96803 9.19856 7.8327 9.68389 7.56203 10.1319C7.29136 10.5799 6.8947 10.9392 6.37203 11.2099C5.84937 11.4712 5.2287 11.6019 4.51003 11.6019Z" fill="white"/>
<path d="M10.6613 2.82389C10.3159 2.82389 10.0266 2.71656 9.79328 2.50189C9.56928 2.27789 9.45728 2.00256 9.45728 1.67589C9.45728 1.34922 9.56928 1.07856 9.79328 0.863892C10.0266 0.639892 10.3159 0.527893 10.6613 0.527893C11.0066 0.527893 11.2913 0.639892 11.5153 0.863892C11.7486 1.07856 11.8653 1.34922 11.8653 1.67589C11.8653 2.00256 11.7486 2.27789 11.5153 2.50189C11.2913 2.71656 11.0066 2.82389 10.6613 2.82389ZM11.6273 3.74789V11.5039H9.66728V3.74789H11.6273Z" fill="white"/>
<path d="M16.6018 3.62189C17.1804 3.62189 17.6891 3.73856 18.1278 3.97189C18.5664 4.19589 18.9118 4.48989 19.1638 4.85389V3.74789H21.1378V11.5599C21.1378 12.2786 20.9931 12.9179 20.7038 13.4779C20.4144 14.0472 19.9804 14.4952 19.4018 14.8219C18.8231 15.1579 18.1231 15.3259 17.3018 15.3259C16.2004 15.3259 15.2951 15.0692 14.5858 14.5559C13.8858 14.0426 13.4891 13.3426 13.3958 12.4559H15.3418C15.4444 12.8106 15.6638 13.0906 15.9998 13.2959C16.3451 13.5106 16.7604 13.6179 17.2458 13.6179C17.8151 13.6179 18.2771 13.4452 18.6318 13.0999C18.9864 12.7639 19.1638 12.2506 19.1638 11.5599V10.3559C18.9118 10.7199 18.5618 11.0232 18.1138 11.2659C17.6751 11.5086 17.1711 11.6299 16.6018 11.6299C15.9484 11.6299 15.3511 11.4619 14.8098 11.1259C14.2684 10.7899 13.8391 10.3186 13.5218 9.71189C13.2138 9.09589 13.0598 8.39123 13.0598 7.59789C13.0598 6.81389 13.2138 6.11856 13.5218 5.51189C13.8391 4.90523 14.2638 4.43856 14.7958 4.11189C15.3371 3.78523 15.9391 3.62189 16.6018 3.62189ZM19.1638 7.62589C19.1638 7.14989 19.0704 6.74389 18.8838 6.40789C18.6971 6.06256 18.4451 5.80123 18.1278 5.62389C17.8104 5.43723 17.4698 5.34389 17.1058 5.34389C16.7418 5.34389 16.4058 5.43256 16.0978 5.60989C15.7898 5.78723 15.5378 6.04856 15.3418 6.39389C15.1551 6.72989 15.0618 7.13123 15.0618 7.59789C15.0618 8.06456 15.1551 8.47523 15.3418 8.82989C15.5378 9.17523 15.7898 9.44123 16.0978 9.62789C16.4151 9.81456 16.7511 9.90789 17.1058 9.90789C17.4698 9.90789 17.8104 9.81923 18.1278 9.64189C18.4451 9.45523 18.6971 9.19389 18.8838 8.85789C19.0704 8.51256 19.1638 8.10189 19.1638 7.62589Z" fill="white"/>
<path d="M27.35 3.63589C28.274 3.63589 29.0207 3.92989 29.59 4.51789C30.1594 5.09656 30.444 5.90856 30.444 6.95389V11.5039H28.4841V7.21989C28.4841 6.60389 28.33 6.13256 28.022 5.80589C27.714 5.46989 27.2941 5.30189 26.7621 5.30189C26.2207 5.30189 25.7914 5.46989 25.474 5.80589C25.166 6.13256 25.0121 6.60389 25.0121 7.21989V11.5039H23.0521V3.74789H25.0121V4.71389C25.2734 4.37789 25.6047 4.11656 26.006 3.92989C26.4167 3.73389 26.8647 3.63589 27.35 3.63589Z" fill="white"/>
<path d="M37.6038 1.73189V11.5039H35.6438V1.73189H37.6038Z" fill="white"/>
<path d="M43.8383 3.63589C44.7623 3.63589 45.509 3.92989 46.0783 4.51789C46.6477 5.09656 46.9323 5.90856 46.9323 6.95389V11.5039H44.9723V7.21989C44.9723 6.60389 44.8183 6.13256 44.5103 5.80589C44.2023 5.46989 43.7823 5.30189 43.2503 5.30189C42.709 5.30189 42.2797 5.46989 41.9623 5.80589C41.6543 6.13256 41.5003 6.60389 41.5003 7.21989V11.5039H39.5403V3.74789H41.5003V4.71389C41.7617 4.37789 42.093 4.11656 42.4943 3.92989C42.905 3.73389 43.353 3.63589 43.8383 3.63589Z" fill="white"/>
</svg>
